PathFileType	4	(X/Y/Z)	./resultDataOpenSim/trcMotMarkerGrf/sub06/qtm-01-03.trc
DataRate	CameraRate	NumFrames	NumMarkers	Units	OrigDataRate	OrigDataStartFrame	OrigNumFrames
250.000000	250.000000	6	24	m	250.000000	1	512
Frame#	Time	L.Toe.Tip			R.Toe.Tip			L.Ankle.Lat			R.Ankle.Lat			L.Ankle.Med			R.Ankle.Med			L.Heel			R.Heel			L.Knee.Lat			R.Knee.Lat			L.Knee.Med			R.Knee.Med			L.Thigh.Upper			R.Thigh.Upper			L.ASIS			R.ASIS			V.Sacral			L.Acromium			R.Acromium			C7			L.Elbow			R.Elbow			L.Wrist.Lat			R.Wrist.Lat
		X1	Y1	Z1	X2	Y2	Z2	X3	Y3	Z3	X4	Y4	Z4	X5	Y5	Z5	X6	Y6	Z6	X7	Y7	Z7	X8	Y8	Z8	X9	Y9	Z9	X10	Y10	Z10	X11	Y11	Z11	X12	Y12	Z12	X13	Y13	Z13	X14	Y14	Z14	X15	Y15	Z15	X16	Y16	Z16	X17	Y17	Z17	X18	Y18	Z18	X19	Y19	Z19	X20	Y20	Z20	X21	Y21	Z21	X22	Y22	Z22	X23	Y23	Z23	X24	Y24	Z24

1	0	-1.5543628	0.032391779	-0.06450572	-0.96571024	0.11693171	0.11022652	-1.6758911	0.074627916	-0.077749753	-1.0928841	0.082804004	0.11661375	-1.6689338	0.08931482	0.0063472577	-1.0809159	0.1150864	0.03330215	NaN	NaN	NaN	-1.1267472	0.040034305	0.042886171	-1.5155388	0.41296197	-0.10728799	-1.220664	0.45012399	0.13111134	-1.519897	0.4162703	0.011240685	-1.2311534	0.43159591	-0.001459764	-1.4314258	0.79032963	-0.17743481	-1.3977264	0.78007422	0.16730874	-1.3458145	0.83115242	-0.14292751	-1.3134497	0.83522469	0.1025732	-1.5085123	0.91388394	0.0090670449	-1.3564368	1.3196212	-0.19248003	-1.3707537	1.2992624	0.17060195	-1.4388196	1.3535868	-0.01169342	-1.363375	0.99677926	-0.26620362	-1.4932102	1.0102667	0.22140388	-1.1569288	0.86323095	-0.21689311	-1.3975843	0.78589347	0.25717671
2	0.004	-1.5543326	0.032376525	-0.064499476	-0.95310395	0.12126011	0.10911646	-1.6754646	0.075246926	-0.077877238	-1.0802377	0.084001191	0.11564458	-1.6682398	0.089955631	0.0061309064	-1.0686049	0.11677981	0.032442345	NaN	NaN	NaN	-1.1125587	0.040711724	0.041831163	-1.5124628	0.41222373	-0.10742935	-1.2149775	0.44866906	0.13037669	-1.5168811	0.41552457	0.0113327	-1.2248663	0.43035554	-0.002312356	-1.4264132	0.78910907	-0.17717691	-1.390608	0.77835874	0.16762606	-1.3401762	0.82969328	-0.14294263	-1.3071896	0.83368722	0.10242189	-1.5026589	0.91247697	0.0098479423	-1.3511291	1.3180499	-0.19227239	-1.3655643	1.2977848	0.17090449	-1.4334669	1.3521253	-0.01176046	-1.3564141	0.99515739	-0.26592626	-1.4874337	1.0081601	0.2205388	-1.1496657	0.86254778	-0.21605625	-1.394097	0.78422645	0.25749284
3	0.008	-1.5543047	0.032359616	-0.064489236	-0.94081952	0.12532628	0.10809645	-1.6750224	0.075902785	-0.078006439	-1.0678702	0.085127542	0.11457204	-1.6675899	0.090628298	0.0059385747	-1.0565501	0.11845132	0.031533055	NaN	NaN	NaN	-1.0988294	0.041420059	0.040606306	-1.5093373	0.41153087	-0.10758503	-1.209167	0.4472612	0.12970962	-1.5136118	0.41478317	0.011289809	-1.2185405	0.42913246	-0.0031590845	-1.421377	0.78789828	-0.17692713	-1.3833557	0.77668148	0.16796325	-1.3345289	0.82832536	-0.14295085	-1.3009451	0.83217709	0.1022636	-1.4967466	0.91109799	0.010709155	-1.3458042	1.3164922	-0.19207474	-1.3603307	1.2963	0.17121941	-1.4280641	1.3506962	-0.011709255	-1.3494628	0.99353858	-0.26564138	-1.4817053	1.0061257	0.21973856	-1.1424185	0.86184033	-0.21521933	-1.3905748	0.78255866	0.25778778
4	0.012	-1.5542827	0.032340706	-0.064469809	-0.92914028	0.12889042	0.10726667	-1.6745561	0.076610186	-0.078144737	-1.0559449	0.086143396	0.11336061	-1.666949	0.091357652	0.0057637289	-1.0448933	0.12007698	0.030543568	NaN	NaN	NaN	-1.0857675	0.042175769	0.039141523	-1.5061188	0.41088449	-0.10775809	-1.2031537	0.44592078	0.12913639	-1.5100551	0.41405922	0.011122591	-1.2121446	0.42793126	-0.0039742287	-1.4162994	0.78669608	-0.17668295	-1.3761771	0.77502858	0.16824045	-1.3288719	0.82706185	-0.14296068	-1.2946884	0.8306974	0.10209094	-1.4906634	0.90974429	0.011776389	-1.3404432	1.3149472	-0.19188972	-1.3550161	1.2948041	0.17155333	-1.4225844	1.3493141	-0.011516108	-1.3425214	0.99193275	-0.26533851	-1.4761303	1.0042794	0.21908912	-1.1351961	0.86110351	-0.2143774	-1.3869919	0.7809003	0.25807507
5	0.016	-1.5542671	0.032321067	-0.064441809	-0.91817765	0.13185582	0.10660682	-1.6740612	0.077367024	-0.078304867	-1.0445247	0.087030811	0.11204299	-1.6662738	0.092133046	0.0055809229	-1.0336964	0.12161858	0.029470095	NaN	NaN	NaN	-1.0733949	0.042950284	0.037496262	-1.5027827	0.41025727	-0.10794965	-1.1969195	0.44464985	0.12864632	-1.506297	0.41336864	0.010897926	-1.2056636	0.42676338	-0.0047403303	-1.4111819	0.78550397	-0.17644021	-1.3692822	0.77338521	0.16839028	-1.3232172	0.82586401	-0.14298967	-1.2883885	0.82924223	0.10189732	-1.4842509	0.90838361	0.013230189	-1.3350442	1.3134147	-0.19170674	-1.3496119	1.2933039	0.17190643	-1.4170454	1.3479725	-0.011267422	-1.3356001	0.9903544	-0.26500671	-1.4707301	1.0026489	0.21862114	-1.128016	0.86033294	-0.21353157	-1.3833269	0.77927006	0.25838378
6	0.02	-1.5542495	0.032300825	-0.064420414	-0.907843	0.1342799	0.10597209	-1.6735298	0.078180063	-0.078500055	-1.0336129	0.087771963	0.11065286	-1.6655754	0.09292858	0.0053754751	-1.0229812	0.12302187	0.028322465	NaN	NaN	NaN	-1.0616816	0.043684937	0.035776699	-1.4993193	0.40963979	-0.10816611	-1.1904773	0.443446	0.12820672	-1.5024119	0.41269652	0.010659243	-1.1990745	0.4256552	-0.0054664802	-1.4060303	0.78432957	-0.17620304	-1.3625835	0.7717785	0.16844483	-1.3175651	0.8246991	-0.14304067	-1.2820296	0.82780867	0.10167701	-1.4774143	0.90698864	0.015161297	-1.3296117	1.3119051	-0.19150928	-1.344124	1.2918119	0.17227684	-1.411468	1.3466613	-0.011042579	-1.3287042	0.98880812	-0.2646351	-1.4653859	1.0011358	0.21836684	-1.1208874	0.85951081	-0.21269334	-1.3795467	0.77767502	0.25872042
